<svg width="12" height="15" viewBox="0 0 12 15" fill="none" xmlns="http://www.w3.org/2000/svg">
<path d="M3.07811 4.15632V2.99954C3.07811 1.34765 4.38111 0 5.99964 0C7.61816 0 8.92115 1.34765 8.92115 2.99954V4.15632H10.9405C11.033 4.15639 11.1221 4.19115 11.1897 4.25361C11.2574 4.31607 11.2986 4.40159 11.3051 4.49294L11.9993 14.6148C12.0054 14.7104 11.9731 14.8046 11.9094 14.8767C11.8457 14.9489 11.7558 14.9932 11.6592 15H0.364606C0.267906 15 0.175167 14.962 0.10679 14.8943C0.0384136 14.8266 0 14.7348 0 14.6391V14.6148L0.694153 4.49294C0.700373 4.40139 0.74148 4.31558 0.809163 4.25288C0.876847 4.19018 0.966058 4.15525 1.05876 4.15516L3.07811 4.15632ZM4.17427 4.15632H7.82617V2.99954C7.82617 1.93645 7.00814 1.08391 5.99964 1.08391C4.99113 1.08391 4.17427 1.93645 4.17427 2.99954V4.15632ZM1.1464 13.9173H10.8529L10.2592 5.24138H1.74123L1.1464 13.9173Z" fill="#66AE7B"/>
</svg>
