<svg width="18" height="18" viewBox="0 0 17 14" fill="none" xmlns="http://www.w3.org/2000/svg">
<path d="M10.208 0.708008C11.7551 0.708008 13.2388 1.4003 14.3327 2.63259C15.4267 3.86488 16.0412 5.53622 16.0412 7.27894C16.0412 9.02166 15.4267 10.693 14.3327 11.9253C13.2388 13.1576 11.7551 13.8499 10.208 13.8499C8.661 13.8499 7.17731 13.1576 6.08337 11.9253C4.98944 10.693 4.37488 9.02166 4.37488 7.27894C4.37488 5.53622 4.98944 3.86488 6.08337 2.63259C7.17731 1.4003 8.661 0.708008 10.208 0.708008ZM10.208 2.35074C9.04776 2.35074 7.93499 2.86996 7.11454 3.79418C6.29409 4.71839 5.83317 5.9719 5.83317 7.27894C5.83317 8.58598 6.29409 9.83948 7.11454 10.7637C7.93499 11.6879 9.04776 12.2071 10.208 12.2071C11.3683 12.2071 12.4811 11.6879 13.3016 10.7637C14.122 9.83948 14.5829 8.58598 14.5829 7.27894C14.5829 5.9719 14.122 4.71839 13.3016 3.79418C12.4811 2.86996 11.3683 2.35074 10.208 2.35074ZM9.4789 3.99347H10.5726V7.09824L12.2715 9.01202L11.4986 9.88267L9.4789 7.60748V3.99347ZM0.729146 12.2071C0.535765 12.2071 0.350303 12.1206 0.213562 11.9666C0.0768205 11.8125 0 11.6036 0 11.3858C0 11.1679 0.0768205 10.959 0.213562 10.805C0.350303 10.6509 0.535765 10.5644 0.729146 10.5644H3.52178C3.74781 11.1476 4.03947 11.6979 4.37488 12.2071H0.729146ZM1.45829 8.1003C1.26491 8.1003 1.07945 8.01377 0.942708 7.85973C0.805967 7.70569 0.729146 7.49678 0.729146 7.27894C0.729146 7.0611 0.805967 6.85218 0.942708 6.69814C1.07945 6.54411 1.26491 6.45757 1.45829 6.45757H2.95304L2.91659 7.27894L2.95304 8.1003H1.45829ZM2.18744 3.99347C1.99406 3.99347 1.8086 3.90694 1.67185 3.7529C1.53511 3.59886 1.45829 3.38995 1.45829 3.17211C1.45829 2.95427 1.53511 2.74535 1.67185 2.59131C1.8086 2.43728 1.99406 2.35074 2.18744 2.35074H4.37488C4.03947 2.85999 3.74781 3.4103 3.52178 3.99347H2.18744Z" fill="#66AE7B"/>
</svg>
