<svg width="25" height="25" viewBox="0 0 25 25" fill="none" xmlns="http://www.w3.org/2000/svg">
    <path
        d="M3.51562 3.90625C2.44141 3.90625 1.5625 4.78516 1.5625 5.85938V19.1406C1.5625 20.2148 2.44141 21.0938 3.51562 21.0938H21.4844C22.5586 21.0938 23.4375 20.2148 23.4375 19.1406V8.20312C23.4375 7.12891 22.5586 6.25 21.4844 6.25H12.8906C12.6942 6.25004 12.4998 6.21139 12.3183 6.13626C12.1369 6.06112 11.9721 5.95097 11.8332 5.81211L10.5941 4.57305C10.1672 4.14618 9.58814 3.90634 8.98438 3.90625H3.51562ZM3.51562 4.6875H8.98438C9.38125 4.6875 9.76133 4.84492 10.0418 5.12539L11.2809 6.36445C11.7078 6.79132 12.2869 7.03116 12.8906 7.03125H21.4844C22.1363 7.03125 22.6562 7.55117 22.6562 8.20312V8.99609C22.3204 8.73702 21.9086 8.59563 21.4844 8.59375H3.51562C3.075 8.59375 2.67188 8.74727 2.34375 8.99609V5.85938C2.34375 5.20742 2.86367 4.6875 3.51562 4.6875ZM3.51562 9.375H21.4844C22.1363 9.375 22.6562 9.89492 22.6562 10.5469V19.1406C22.6562 19.7926 22.1363 20.3125 21.4844 20.3125H3.51562C2.86367 20.3125 2.34375 19.7926 2.34375 19.1406V10.5469C2.34375 9.89492 2.86367 9.375 3.51562 9.375Z"
        fill="white" />
    <path
        d="M12.5152 10.9376C12.1987 10.9337 11.8941 11.0575 11.6706 11.2809L8.93468 14.0169C8.71627 14.2375 8.59375 14.5354 8.59375 14.8458C8.59375 15.1562 8.71627 15.4541 8.93468 15.6747C9.15533 15.893 9.45319 16.0155 9.76359 16.0155C10.074 16.0155 10.3718 15.893 10.5925 15.6747L11.328 14.9392V17.5782C11.328 18.2208 11.8573 18.7501 12.4999 18.7501C13.1425 18.7501 13.6718 18.2208 13.6718 17.5782V14.9392L14.4073 15.6747C14.628 15.893 14.9258 16.0155 15.2362 16.0155C15.5466 16.0155 15.8445 15.893 16.0651 15.6747C16.2836 15.4541 16.4061 15.1562 16.4061 14.8458C16.4061 14.5354 16.2836 14.2375 16.0651 14.0169L13.3284 11.2809C13.1124 11.0649 12.8206 10.9417 12.5152 10.9376ZM12.5046 11.7188C12.6066 11.72 12.7038 11.761 12.7761 11.8333L15.5128 14.5692C15.6691 14.7255 15.6691 14.9661 15.5128 15.1224C15.3566 15.2786 15.1155 15.2786 14.9597 15.1224L13.5573 13.72C13.5027 13.6654 13.4331 13.6282 13.3573 13.6131C13.2816 13.5981 13.2031 13.6058 13.1317 13.6354C13.0603 13.6649 12.9993 13.715 12.9564 13.7792C12.9135 13.8434 12.8906 13.9189 12.8905 13.9962V17.5782C12.8905 17.7985 12.7202 17.9688 12.4999 17.9688C12.2796 17.9688 12.1093 17.7985 12.1093 17.5782V13.9962C12.1093 13.9189 12.0864 13.8434 12.0434 13.7792C12.0005 13.715 11.9395 13.6649 11.8681 13.6354C11.7968 13.6058 11.7182 13.5981 11.6425 13.6131C11.5667 13.6282 11.4971 13.6654 11.4425 13.72L10.0401 15.1224C9.8839 15.2786 9.64328 15.2786 9.48703 15.1224C9.44998 15.0864 9.42053 15.0435 9.40041 14.996C9.3803 14.9484 9.36993 14.8974 9.36993 14.8458C9.36993 14.7942 9.3803 14.7431 9.40041 14.6956C9.42053 14.6481 9.44998 14.6051 9.48703 14.5692L12.223 11.8333C12.2598 11.7964 12.3037 11.7672 12.352 11.7476C12.4003 11.7279 12.4525 11.7182 12.5046 11.7188Z"
        fill="white" />
</svg>
    