<svg width="10" height="9" viewBox="0 0 10 9" fill="none" xmlns="http://www.w3.org/2000/svg">
<path d="M5 2.13776L4.57937 1.48324C4.18608 0.871266 3.51717 0.500094 2.72757 0.5C2.1456 0.5008 1.58211 0.74438 1.1623 1.18646C0.741645 1.62943 0.500772 2.23525 0.5 2.87225C0.500112 4.06434 1.20803 5.39426 2.7935 6.82304C3.48021 7.43918 4.21886 7.98718 5 8.46031C5.78116 7.98717 6.51983 7.43915 7.20655 6.82299C8.79187 5.39434 9.49978 4.06453 9.5 2.87252L5 2.13776ZM5 2.13776L5.42063 1.48324M5 2.13776L5.42063 1.48324M5.42063 1.48324C5.81392 0.871266 6.48283 0.500094 7.27243 0.5M5.42063 1.48324L7.27243 0.5M7.27243 0.5C7.8544 0.5008 8.41789 0.74438 8.8377 1.18646C9.2584 1.62948 9.49929 2.2354 9.5 2.87248L7.27243 0.5Z" fill="white" stroke="#FF9200"/>
</svg>
