<svg width="26" height="44" viewBox="0 0 26 44" fill="none" xmlns="http://www.w3.org/2000/svg">
<path d="M10.9073 22.9125C12.6398 19.785 15.9698 17.94 17.9048 15.1725C19.9523 12.27 18.8048 6.8475 12.9998 6.8475C9.19734 6.8475 7.32985 9.7275 6.54235 12.1125L0.714844 9.66C2.31234 4.8675 6.65484 0.75 12.9773 0.75C18.2648 0.75 21.8873 3.1575 23.7323 6.1725C25.3073 8.76 26.2298 13.5975 23.7998 17.1975C21.0998 21.18 18.5123 22.395 17.1173 24.96C16.5548 25.995 16.3298 26.67 16.3298 30H9.82735C9.80485 28.245 9.53484 25.3875 10.9073 22.9125ZM17.4998 39C17.4998 41.475 15.4748 43.5 12.9998 43.5C10.5248 43.5 8.49985 41.475 8.49985 39C8.49985 36.525 10.5248 34.5 12.9998 34.5C15.4748 34.5 17.4998 36.525 17.4998 39Z" fill="#FF9200"/>
</svg>
