<svg width="256" height="212" viewBox="0 0 125 105" fill="none" xmlns="http://www.w3.org/2000/svg">
    <path
        d="M72 20.8926C93 33.8926 120.14 54.1295 110.042 76.0732C99.9435 98.017 52.662 84.248 30.7303 74.1553C10.473 61.5492 5.46829 43.7205 15.2301 27.4688C26.2301 9.15578 52.5 8.82115 72 20.8926Z"
        fill="#66AE7B" fill-opacity="0.19" />
    <circle cx="102.5" cy="62.3926" r="5.5" fill="#FF9200" />
    <circle cx="102.5" cy="62.3926" r="2.5" fill="white" />
    <path
        d="M93.3878 67.8926C95.3178 67.8926 95.7466 68.9841 95.7466 70.5123C95.9611 75.3152 97.891 78.5899 102.823 79.4631C104.324 79.6814 105.182 80.9913 104.967 82.5194C104.967 84.4843 103.466 84.7026 101.965 84.7026C97.6766 84.9209 94.8889 86.8857 93.3878 91.0336C92.959 92.5618 91.8868 94.09 90.1713 93.8717C88.4558 93.6534 88.4558 91.9069 88.2414 90.597C88.0269 86.2308 85.2392 83.611 81.5938 82.0828C80.3072 81.6462 78.8062 81.2096 79.0206 79.4631C79.235 77.4983 80.7361 77.4983 82.0227 77.4983C86.097 77.0617 89.0991 75.0969 90.3857 70.9489C91.029 69.4208 91.6723 68.1109 93.3878 67.8926Z"
        fill="#66AE7B" />
    <path
        d="M81.2143 63.008V38.508M35.7857 38.508V63.008M32 64.8926H85M62.2857 64.8926V46.9887C62.2857 46.239 62.5849 45.5199 63.1173 44.9898C63.6498 44.4596 64.372 44.1618 65.125 44.1618H72.6964C73.4495 44.1618 74.1716 44.4596 74.7041 44.9898C75.2366 45.5199 75.5357 46.239 75.5357 46.9887V64.8926M73.4619 15.8926H43.5381C40.9603 15.8926 38.6321 17.306 37.6312 19.4804L32.5087 30.6161C30.7838 34.363 33.648 38.6081 38.0915 38.7435H38.3281C42.0428 38.7435 45.0536 35.7776 45.0536 32.5914C45.0536 35.7717 48.0656 38.7435 51.7804 38.7435C55.4951 38.7435 58.5 35.9896 58.5 32.5914C58.5 35.7717 61.5108 38.7435 65.2256 38.7435C68.9403 38.7435 71.9523 35.9896 71.9523 32.5914C71.9523 35.9896 74.9631 38.7435 78.6779 38.7435H78.9086C83.352 38.6057 86.2162 34.3606 84.4913 30.6161L79.3688 19.4804C78.3679 17.306 76.0397 15.8926 73.4619 15.8926ZM44.3036 44.1618H53.7679C54.5209 44.1618 55.2431 44.4596 55.7755 44.9898C56.308 45.5199 56.6071 46.239 56.6071 46.9887V57.3541H41.4643V46.9887C41.4643 46.239 41.7634 45.5199 42.2959 44.9898C42.8284 44.4596 43.5505 44.1618 44.3036 44.1618Z"
        stroke="#66AE7B" stroke-width="2" stroke-linecap="round" stroke-linejoin="round" />
</svg>
    