<svg width="18" height="18" viewBox="0 0 18 18" fill="none" xmlns="http://www.w3.org/2000/svg">
<path d="M15.6286 3.45789C15.2456 3.07465 14.7907 2.77063 14.2901 2.56321C13.7895 2.35578 13.253 2.24902 12.7111 2.24902C12.1693 2.24902 11.6327 2.35578 11.1321 2.56321C10.6315 2.77063 10.1767 3.07465 9.79362 3.45789L8.99862 4.25289L8.20362 3.45789C7.42986 2.68412 6.3804 2.24942 5.28612 2.24942C4.19185 2.24942 3.14239 2.68412 2.36862 3.45789C1.59486 4.23166 1.16016 5.28112 1.16016 6.37539C1.16016 7.46967 1.59486 8.51912 2.36862 9.29289L3.16362 10.0879L8.99862 15.9229L14.8336 10.0879L15.6286 9.29289C16.0119 8.90983 16.3159 8.455 16.5233 7.95441C16.7307 7.45381 16.8375 6.91726 16.8375 6.37539C16.8375 5.83353 16.7307 5.29697 16.5233 4.79638C16.3159 4.29578 16.0119 3.84096 15.6286 3.45789Z" fill="white" stroke="#333333" stroke-linecap="round" stroke-linejoin="round"/>
</svg>
