<svg width="19" height="18" viewBox="0 0 19 18" fill="none" xmlns="http://www.w3.org/2000/svg">
<path d="M2.54688 6.9549L2.95597 14.3185V15.5458L3.36506 16.364H4.18324H7.25557V9.00036H11.5469V16.364H15.2287L16.0469 15.5458L16.456 6.9549L9.50142 1.63672L2.54688 6.9549Z" fill="#66AE7B"/>
<path d="M7.25 16.5V9H11.75V16.5M2.75 6.75L9.5 1.5L16.25 6.75V15C16.25 15.3978 16.092 15.7794 15.8107 16.0607C15.5294 16.342 15.1478 16.5 14.75 16.5H4.25C3.85218 16.5 3.47064 16.342 3.18934 16.0607C2.90804 15.7794 2.75 15.3978 2.75 15V6.75Z" stroke="#66AE7B" stroke-linecap="round" stroke-linejoin="round"/>
</svg>
