<svg width="14" height="18" viewBox="0 0 14 18" fill="none" xmlns="http://www.w3.org/2000/svg">
<path d="M3.5559 4.85055V3.50055C3.5559 1.57275 5.06115 0 6.9309 0C8.80065 0 10.3059 1.57275 10.3059 3.50055V4.85055H12.6387C12.7456 4.85063 12.8484 4.8912 12.9266 4.96409C13.0048 5.03699 13.0524 5.13679 13.0599 5.2434L13.8618 17.0559C13.8688 17.1675 13.8315 17.2774 13.7579 17.3616C13.6844 17.4458 13.5805 17.4975 13.4689 17.5054H0.4212C0.309491 17.5054 0.202357 17.4611 0.123366 17.3821C0.0443762 17.3031 0 17.196 0 17.0842V17.0559L0.8019 5.2434C0.809085 5.13655 0.856572 5.03641 0.934762 4.96324C1.01295 4.89006 1.11601 4.8493 1.2231 4.8492L3.5559 4.85055ZM4.8222 4.85055H9.04095V3.50055C9.04095 2.2599 8.09595 1.26495 6.9309 1.26495C5.76585 1.26495 4.8222 2.2599 4.8222 3.50055V4.85055ZM1.32435 16.2418H12.5374L11.8516 6.11685H2.0115L1.32435 16.2418Z" fill="#333333"/>
</svg>
