<svg width="14" height="18" viewBox="0 0 14 18" fill="none" xmlns="http://www.w3.org/2000/svg">
<path d="M3.62621 5.09762V3.74762C3.62621 1.81982 5.13146 0.24707 7.00121 0.24707C8.87096 0.24707 10.3762 1.81982 10.3762 3.74762V5.09762H12.709C12.8159 5.0977 12.9188 5.13827 12.9969 5.21116C13.0751 5.28406 13.1227 5.38386 13.1302 5.49047L13.9321 17.303C13.9392 17.4146 13.9018 17.5244 13.8283 17.6086C13.7547 17.6928 13.6508 17.7446 13.5393 17.7525H0.491512C0.379803 17.7525 0.272669 17.7081 0.193679 17.6292C0.114689 17.5502 0.0703125 17.443 0.0703125 17.3313V17.303L0.872212 5.49047C0.879397 5.38362 0.926885 5.28348 1.00507 5.21031C1.08326 5.13713 1.18632 5.09637 1.29341 5.09627L3.62621 5.09762ZM4.89251 5.09762H9.11126V3.74762C9.11126 2.50697 8.16626 1.51202 7.00121 1.51202C5.83616 1.51202 4.89251 2.50697 4.89251 3.74762V5.09762ZM1.39466 16.4889H12.6078L11.922 6.36392H2.08181L1.39466 16.4889Z" fill="#66AE7B"/>
<path d="M7.3625 10.0565C6.88011 10.3781 6.78169 11.0459 6.60946 11.5626C6.46597 11.9931 6.28588 12.3967 6.1053 12.8134C5.50358 14.202 5.81367 11.8139 5.83088 11.4477C5.83978 11.2585 5.90132 11.0621 5.85003 10.8798C5.83122 10.8129 5.74426 10.9759 5.71601 11.0393C5.35972 11.8398 5.11072 12.6971 4.81619 13.5218C4.64627 13.9976 5.14308 12.5657 5.3012 12.0859C5.42858 11.6994 5.55608 11.3128 5.67772 10.9244C5.95 10.0551 5.84007 10.3789 5.67772 10.7713C5.55162 11.076 5.20969 12.0259 4.91191 12.3157C4.83089 12.3945 4.69225 12.3718 4.58006 12.3859C3.97991 12.4609 4.23332 12.2328 3.66109 12.9155C3.44348 13.1752 3.29015 13.4843 3.07397 13.7452C2.96914 13.8717 2.83922 14.1637 2.70383 14.0706C2.23281 13.7468 3.42373 9.88593 3.45688 9.71191" stroke="#66AE7B" stroke-width="0.5" stroke-linecap="round"/>
<path d="M2.46123 10.8098C2.38981 11.0306 2.33504 11.2575 2.24697 11.4722C2.11158 11.8023 2.06182 11.8104 2.00594 11.4919C2.00571 11.4906 1.97916 10.5139 1.97916 11.2669C1.97916 11.4365 1.97916 11.6061 1.97916 11.7758C1.97916 11.971 1.90805 12.5387 1.98987 12.3614C2.09082 12.1426 2.1054 11.4057 2.05772 11.6418C1.8821 12.5116 1.81572 13.4178 1.70777 14.2968C1.67203 14.5878 1.64177 14.8796 1.60064 15.1699C1.52783 15.6837 1.54476 15.187 1.55065 14.9807C1.55923 14.6799 1.57343 14.3794 1.58993 14.079C1.59213 14.0389 1.65367 12.7518 1.73276 12.5203C1.75015 12.4694 1.79506 12.6132 1.80061 12.6667C1.83972 13.0438 1.85096 14.2644 1.8506 14.5879C1.85039 14.7772 1.86713 14.9688 1.83632 15.1556C1.77343 15.5369 1.74822 14.3876 1.72026 14.0022C1.69282 13.6238 1.66823 13.2452 1.64349 12.8667C1.62478 12.5805 1.60975 12.294 1.58993 12.0079C1.58237 11.8988 1.63251 11.5981 1.56136 11.6811C1.47957 11.7765 1.54945 11.9322 1.54707 12.0579C1.53507 12.6923 1.53273 13.7037 1.53101 14.2968C1.52928 14.8902 1.52922 16.6703 1.52922 16.0769C1.52922 15.7012 1.53899 15.3241 1.52743 14.9485C1.52128 14.7485 1.50602 15.3483 1.50422 15.5484C1.49662 16.3972 1.62692 15.2951 1.76847 15.8912C1.81428 16.0841 1.89514 16.654 1.93987 16.4608C2.01985 16.1154 2.00648 15.7046 1.98987 15.352C1.9814 15.1723 1.92425 15.7065 1.90952 15.8859C1.87513 16.3048 1.98887 15.8294 2.01486 15.7627C2.04501 15.6853 2.05913 15.5941 2.11842 15.5359C2.16256 15.4926 2.28088 15.6303 2.30054 15.5716C2.36854 15.3688 2.39345 15.1534 2.42195 14.9414C2.54012 14.0621 2.66301 12.598 2.75047 11.7383C2.95892 9.68948 2.89178 11.6536 2.8951 11.9489C2.89782 12.1918 2.90246 12.4346 2.90402 12.6774C2.90424 12.712 2.90266 12.8154 2.90045 12.781C2.88873 12.5978 2.88579 12.4143 2.87546 12.231C2.8602 11.9607 2.84812 11.6901 2.82368 11.4205C2.7994 11.1527 2.7706 10.5772 2.67191 11.2205C2.49461 12.3761 2.45705 13.5512 2.29697 14.7093C2.28198 14.8177 2.26857 15.1279 2.22198 15.0289C2.14196 14.8588 2.19094 14.6542 2.1827 14.4664C2.16594 14.0845 2.1628 13.7021 2.14699 13.3202C2.13304 12.9831 2.11831 12.646 2.09342 12.3096C2.08496 12.1952 2.14246 12.0322 2.047 11.9686C1.9623 11.9121 2.03342 12.1723 2.03986 12.2739C2.05131 12.4544 2.06315 12.6361 2.10057 12.8131C2.14805 13.0377 2.20231 13.2253 2.33803 12.9434C2.38964 12.8363 2.40897 12.7163 2.44337 12.6024C2.4675 12.5226 2.5488 12.1875 2.47908 12.6346C2.33594 13.5526 2.30124 12.2159 2.30054 12.1882C2.28359 11.5183 2.30862 9.5078 2.2934 10.1778C2.28331 10.6217 2.27627 11.9537 2.27018 11.5097C2.26182 10.8992 2.2684 10.2884 2.2684 9.67784C2.2684 9.27492 2.2684 10.4837 2.2684 10.8866C2.2684 11.5478 2.2691 9.56417 2.2684 8.90295C2.26817 8.69108 2.2698 8.47918 2.26661 8.26733C2.26135 7.91739 2.2556 8.96721 2.25233 9.31718C2.24915 9.65761 2.24699 9.99804 2.2434 10.3385C2.23908 10.7483 2.23856 11.1071 2.22912 10.5741C2.22415 10.2938 2.22198 10.0135 2.21662 9.73319C2.21126 9.45285 2.21038 9.17231 2.19698 8.89224C2.19251 8.79882 2.20104 8.52824 2.16306 8.61371C2.09886 8.75815 2.1237 8.92749 2.11128 9.08507C2.0036 10.4506 2.08613 9.7586 1.98273 11.1098C1.97254 11.2429 2.07104 11.4953 1.93809 11.5079C1.80795 11.5203 1.91293 11.2475 1.90774 11.1169C1.89507 10.7987 1.89187 10.4801 1.88453 10.1617C1.87759 9.86116 1.87307 9.56056 1.86489 9.26005C1.85457 8.88097 1.85066 8.75726 1.83632 9.18506C1.82922 9.39688 1.82521 9.6088 1.82025 9.82068C1.81449 10.067 1.74467 10.79 1.83275 10.5599C1.88648 10.4195 1.89477 10.2655 1.91845 10.1171C1.99116 9.66121 2.14094 8.5489 2.19341 8.10664C2.22294 7.85771 2.24976 7.60838 2.27018 7.35853C2.28072 7.2297 2.2887 7.10032 2.28625 6.97109C2.2857 6.94191 2.28895 6.87794 2.26126 6.88717C2.1671 6.91856 2.11219 7.71512 2.10771 7.74598C2.08935 7.87225 2.07298 7.99888 2.05057 8.12449C2.03607 8.20584 2.00361 8.43445 1.9863 8.21377C1.96157 7.89849 1.97916 7.57625 1.97916 7.26033C1.97916 7.05024 1.97916 6.84016 1.97916 6.63007C1.97916 6.34247 2.11605 7.18892 2.17198 7.47102C2.47445 8.99645 2.68762 10.5502 3.04686 12.0632C3.45191 13.7692 3.42778 11.1684 3.42895 11.1419C3.43948 10.9029 3.44323 10.6635 3.44323 10.4242C3.44323 10.0167 3.40525 11.2382 3.38967 11.6454C3.37436 12.0454 3.36246 12.4455 3.34325 12.8452C3.3173 13.3851 3.29739 13.6908 3.28611 12.9631C3.28118 12.6453 3.28357 12.3275 3.28433 12.0097C3.28641 11.1335 3.29488 11.4279 3.28611 11.8936C3.27929 12.2561 3.2698 12.6185 3.26111 12.9809C3.25233 13.3475 3.16593 14.4358 3.25754 14.0808C3.3096 13.8791 3.32092 13.669 3.35217 13.463C3.39948 13.1512 3.4349 12.8374 3.49322 12.5274C3.52785 12.3434 3.48473 12.1001 3.6307 11.9829C3.72651 11.9059 3.71469 12.2161 3.7289 12.3382C3.75385 12.5524 3.8315 14.1752 3.88245 14.4343C3.89249 14.4853 3.99248 14.5679 4.01279 14.52C4.10507 14.3026 4.32589 12.9209 4.36274 12.7506C4.37932 12.674 4.43768 12.4532 4.44666 12.531C4.46708 12.708 4.34619 14.1019 4.3431 14.1451C4.33553 14.2509 4.29961 14.5653 4.32703 14.4629C5.18676 11.2502 3.22096 17.7756 4.577 12.9952C4.85392 12.019 4.82981 13.2845 5.29654 13.0238C5.46336 12.9306 5.53182 12.7215 5.63042 12.5578C5.82487 12.235 5.91527 11.7587 5.81789 12.5167C5.77415 12.8572 5.70454 13.194 5.66077 13.5344C5.63487 13.7359 5.48574 13.9801 5.60899 14.1415C5.70155 14.2627 5.75566 13.873 5.81075 13.7308C5.94224 13.3914 6.04495 13.0415 6.16784 12.6988C6.24732 12.4772 6.2847 12.2324 6.4178 12.0382C6.48269 11.9436 6.40651 12.2682 6.38567 12.381C6.32308 12.7199 6.25003 13.0569 6.16784 13.3916C6.09224 13.6994 6.02535 14.0113 5.91252 14.3075C5.76399 14.6974 5.65992 14.8253 5.43045 14.4129C4.97749 13.5988 4.94074 12.5947 4.60735 11.7347C4.50153 11.4617 4.38695 11.1839 4.20741 10.9527C3.86885 10.5166 3.64499 10.5624 3.35753 11.0044C3.19738 11.2507 3.10778 11.5371 3.00758 11.8133C2.86096 12.2173 2.7073 12.6263 2.65049 13.0524C2.64296 13.1088 2.69902 12.9493 2.72548 12.8988C2.77521 12.804 2.7834 12.6649 2.87903 12.6167C2.93387 12.5891 2.97509 12.7091 2.9808 12.7703C3.05539 13.5691 2.78662 14.3724 2.84689 15.1663C2.87991 15.6013 3.11299 14.3353 3.25754 13.9237C3.36603 13.6147 3.1768 14.5742 3.11114 14.895C2.99442 15.4651 3.2659 14.5913 3.32539 14.5414C3.36115 14.5115 3.40922 14.6055 3.41109 14.6521C3.42497 14.9975 3.27329 15.9377 3.23255 16.2233C3.20545 16.4132 3.17081 16.6022 3.15042 16.7929C3.14691 16.8256 3.1446 16.9196 3.16113 16.8911C3.20356 16.818 3.21287 16.73 3.23433 16.6483C3.26317 16.5384 3.4457 16.0135 3.32896 15.8948C3.26459 15.8294 2.97443 16.2434 2.96116 16.259C2.95857 16.2621 2.73311 16.4689 2.73619 16.5019C2.73912 16.5333 2.76926 16.5666 2.80047 16.5715C3.11302 16.6202 3.66988 16.4334 3.88067 16.3769C4.23385 16.2821 4.58419 16.1771 4.93587 16.0769C5.24243 15.9896 5.5502 15.9064 5.85538 15.8145C5.97288 15.779 6.20114 15.8175 6.20355 15.6948C6.20582 15.579 5.97217 15.7094 5.85717 15.7234C5.58603 15.7564 4.78971 15.7987 5.05193 15.8752C5.20222 15.919 5.36498 15.8813 5.5215 15.8841C5.79408 15.889 6.06768 15.8744 6.33924 15.8984C6.5004 15.9126 6.70669 15.8774 6.81418 15.9984C6.8782 16.0704 6.69331 16.1542 6.61063 16.2037C6.39845 16.3308 5.71402 16.4978 5.95537 16.5519C6.13506 16.5921 6.3242 16.5449 6.50708 16.5233C6.56513 16.5164 7.82004 16.3415 8.00329 16.2269C8.06467 16.1885 7.88225 16.1363 7.81046 16.1269C7.41804 16.0756 6.16663 16.0835 5.8411 16.0823C5.57507 16.0813 5.30901 16.0844 5.043 16.0805C4.58359 16.0738 5.13419 16.0417 5.25011 16.0305C5.5822 15.9983 6.56865 15.9067 6.23747 15.8662C6.1945 15.861 5.10817 15.8865 5.86788 15.7448C6.07615 15.706 6.2867 15.6806 6.49636 15.6502C7.31029 15.5323 6.81115 15.6095 6.60171 15.6431C6.49609 15.66 4.54193 15.9401 4.59307 16.0984C4.63395 16.2249 4.85004 16.172 4.9823 16.1858C5.41075 16.2308 6.16309 16.2314 6.59992 16.2376C6.67372 16.2387 6.89512 16.2402 6.82132 16.2412C6.39046 16.2468 5.95948 16.248 5.52865 16.2412C5.37914 16.2388 5.21424 16.2884 5.0805 16.2215C4.99197 16.1773 5.27358 16.1769 5.37153 16.1626C5.67074 16.1191 5.97214 16.0916 6.2714 16.0484C6.57333 16.0047 6.8786 15.9748 7.17484 15.902C7.6836 15.7768 7.56396 15.7143 7.18555 15.5841C6.98214 15.5142 6.76529 15.4879 6.56243 15.4163C6.35353 15.3426 5.99271 15.2604 6.35174 15.0646C6.58687 14.9363 7.56836 14.7769 6.44637 14.8307C6.10775 14.8469 5.76953 14.8734 5.43223 14.9075C5.15629 14.9353 4.87768 14.9544 4.60735 15.0164C4.54655 15.0303 4.42237 15.0803 4.45916 15.1306C4.52431 15.2199 4.66698 15.2058 4.77161 15.2413C5.43534 15.4667 4.86245 15.2438 5.3501 15.4734C5.403 15.4983 5.97937 15.7182 5.96787 15.7305C5.90885 15.7939 5.80599 15.7939 5.72148 15.8127C5.51456 15.8586 5.30418 15.8912 5.09299 15.9091C5.06392 15.9116 5.20403 15.9057 5.1787 15.8912C5.1393 15.8687 5.08834 15.8788 5.043 15.8805C4.78386 15.8902 4.525 15.9068 4.26633 15.9252C3.90362 15.9509 3.54055 15.9741 3.17898 16.0126C2.92128 16.0402 2.18727 16.0949 2.8826 16.1769C3.18369 16.2124 3.48744 16.2199 3.78961 16.2448C4.06714 16.2676 4.34595 16.2805 4.62163 16.3197C4.71932 16.3337 4.87432 16.3101 4.90552 16.4037C4.9277 16.4702 4.12939 16.5624 4.44309 16.6233C4.50203 16.6347 5.51625 16.639 4.72698 16.6679C4.5002 16.6762 4.27356 16.6886 4.04672 16.6947C3.59453 16.7068 3.39095 16.735 3.86817 16.6197C4.16303 16.5485 4.46343 16.4997 4.75554 16.4179C5.07473 16.3286 5.84277 16.1188 5.60006 15.893C5.45097 15.7544 5.22205 15.7409 5.02872 15.677C4.8182 15.6074 4.5946 15.5773 4.38952 15.4931C4.30353 15.4578 4.19456 15.4126 4.16813 15.3235C4.11611 15.148 4.75682 15.0566 4.12885 15.0664C4.06061 15.0674 2.88878 15.2416 3.91102 15.1306C4.1418 15.1056 4.3728 15.0772 4.60021 15.0306C5.10266 14.9277 5.00767 14.8925 4.58235 14.8646C4.35664 14.8498 4.12975 14.8643 3.90388 14.8521C3.68693 14.8404 3.31933 14.8682 3.6682 14.6914C3.79024 14.6296 3.9248 14.596 4.05029 14.5414C4.16228 14.4928 4.41249 14.4187 4.15741 14.3932C3.80563 14.3581 3.44282 14.3907 3.08971 14.3736C3.01618 14.37 2.9051 14.4151 2.8701 14.3504C2.84095 14.2965 2.96203 14.2658 3.01829 14.2415C3.22511 14.152 3.44039 14.0832 3.65391 14.0112C3.66809 14.0064 5.11279 13.4094 5.21798 13.7201C5.24726 13.8066 5.1722 13.8973 5.13942 13.9826C5.08558 14.1226 4.90792 14.4897 4.8341 14.6289C4.54249 15.1788 4.75512 14.0347 4.75911 13.9951C4.78258 13.7623 4.84261 13.0634 4.81089 13.2952C4.78052 13.5171 4.74451 14.1868 4.7359 13.9629C4.73168 13.8531 4.70517 13.4803 4.83946 13.438C4.8822 13.4246 4.92327 13.4798 4.96801 13.4773C5.2351 13.4625 5.28127 13.2882 5.39117 13.0345C5.55233 12.6624 5.82439 11.4714 5.70719 11.8597C5.56843 12.3193 5.53712 12.8189 5.36974 13.2684C5.3638 13.2844 5.33991 13.2443 5.33939 13.2273C5.33623 13.1254 5.34888 13.0235 5.35903 12.922C5.36556 12.8567 5.33533 12.7647 5.38938 12.7274C5.43338 12.6971 5.40819 12.8329 5.41081 12.8863C5.41772 13.0272 5.41684 13.1684 5.41795 13.3095C5.42032 13.6118 5.41795 13.9141 5.41795 14.2165" stroke="#66AE7B" stroke-width="0.5" stroke-linecap="round"/>
<path d="M8.30683 11.4209L7.66406 13.2849" stroke="#66AE7B" stroke-width="0.5" stroke-linecap="round"/>
<path d="M7.18584 9.65332C7.17039 10.4258 7.15303 11.1983 7.1412 11.9708C7.13463 12.3993 7.11493 12.828 7.12513 13.2564C7.12998 13.4603 7.00614 14.1838 7.38224 13.8313C7.53314 13.6898 7.61724 13.4799 7.78575 13.3599C8.28264 13.0063 8.49806 13.1225 9.02664 13.3456C9.24251 13.4368 9.41643 13.6318 9.6462 13.6777C10.2269 13.7939 10.3881 13.2607 10.5782 12.8457C10.7202 12.5358 10.8038 12.2022 10.9246 11.8834C10.9991 11.6867 11.0418 11.4708 11.1638 11.2995C11.1981 11.2514 11.2217 11.4083 11.221 11.4673C11.2152 11.9247 10.9677 13.2771 11.071 12.8314C11.2054 12.2514 11.2934 11.6582 11.4013 11.0728C11.4159 10.9936 11.4294 10.9141 11.4459 10.8353C11.4664 10.7378 11.4492 10.8701 11.4602 10.8424" stroke="#66AE7B" stroke-width="0.5" stroke-linecap="round"/>
<path d="M7.56888 14.892C7.78303 14.8859 7.78186 14.893 8.07595 14.8134C8.3403 14.7419 8.97701 14.5545 9.19365 14.3492C9.25318 14.2927 9.29022 14.1477 9.22043 14.1046C9.06015 14.0056 8.84968 14.0105 8.66158 14.0206C8.11445 14.0501 7.2339 14.276 6.744 14.517C6.705 14.5362 5.88244 14.9361 6.31192 15.2455C6.67632 15.508 7.65056 15.4928 7.99025 15.4347C8.47565 15.3518 9.34539 15.0704 9.59359 14.5313C9.84344 13.9886 9.30109 13.5582 8.88298 13.4243C8.36097 13.2572 7.55825 13.3272 7.11894 13.7064C6.76896 14.0085 6.83939 14.4867 7.30463 14.6134C7.80543 14.7499 8.47601 14.4657 8.79013 14.0849C9.0971 13.7128 9.15316 13.1499 8.66515 12.8708C8.1692 12.5872 7.42297 12.7544 6.99396 13.0565C6.59248 13.3392 6.49639 13.8458 7.21179 13.7564C7.91946 13.6679 8.8934 13.1295 9.28292 12.5173C9.41492 12.3098 9.48769 11.977 9.33827 11.7817C8.92602 11.2429 7.83216 11.7951 7.55103 11.9959C7.30642 12.1707 7.07965 12.4135 6.98682 12.6994C6.93508 12.8588 7.0146 13.1064 7.17072 13.1672C7.69718 13.3723 8.36059 12.7226 8.50625 12.3441C9.135 10.7101 6.3225 10.6215 5.57809 11.4264C5.05592 11.991 6.01144 12.1713 6.23871 12.1727C6.88408 12.1767 7.6436 11.8884 7.99739 11.3032C8.34294 10.7316 8.05162 10.3861 7.67779 10.0123C7.59724 9.93175 7.45887 9.92424 7.38319 9.83911C7.33391 9.78366 7.51867 9.90523 7.59209 9.91588C7.75071 9.93889 7.91261 9.95192 8.07238 9.93909C8.72884 9.88638 8.23997 9.83392 8.19736 9.86053C7.77035 10.1272 7.50571 10.5078 7.12609 10.839C6.91757 11.0209 6.26941 11.6097 5.85484 11.5746C5.54551 11.5483 5.75483 10.9973 5.77271 10.9497C5.87167 10.6858 5.93018 10.7106 5.94054 10.9282C5.95447 11.2208 5.91912 11.5138 5.91912 11.8067C5.91912 11.8705 5.87203 11.9708 5.92983 11.9977C5.98163 12.0219 5.96747 11.8886 5.97268 11.8317C5.98304 11.7185 6.00498 11.6006 5.97625 11.4907C5.88831 11.154 5.62572 11.5283 5.55131 11.6085C5.52122 11.6409 5.11511 12.2682 4.89962 12.2298C4.6605 12.1873 4.34378 11.3592 4.32649 11.3246C4.23339 11.1384 4.16286 10.9371 4.03724 10.7711C3.9897 10.7083 3.88693 10.6134 3.82656 10.664C3.68675 10.7812 3.58667 11.6928 3.58195 11.7228C3.55803 11.8746 3.54603 12.0289 3.50875 12.1781C3.50125 12.2081 3.49073 12.1179 3.49089 12.087C3.49181 11.9111 3.54191 10.8292 3.54624 10.7336C3.61246 9.27268 3.58374 11.626 3.58374 11.6549C3.58374 11.8836 3.60915 12.5632 3.55696 12.3405C3.44133 11.8472 3.41273 11.3374 3.33199 10.8372C3.33124 10.8326 3.14959 9.61362 3.03203 9.3981C2.92675 9.20509 2.92744 9.82829 2.91955 10.048C2.91192 10.2604 2.91432 10.473 2.90883 10.6854C2.90599 10.7956 2.93638 10.9138 2.89455 11.0157C2.86978 11.0761 2.86046 10.8894 2.8517 10.8247C2.81995 10.5903 2.79879 10.3546 2.77314 10.1194C2.74788 9.88787 2.65244 8.93813 2.60174 8.63392C2.59298 8.58138 2.57011 8.43216 2.55174 8.48216C2.51415 8.58449 2.53746 8.69988 2.53746 8.8089C2.53746 8.98691 2.54302 9.16495 2.55174 9.34275C2.56392 9.59117 2.52771 9.85582 2.62316 10.0855C2.70136 10.2737 2.65055 9.67863 2.65173 9.47487C2.65442 9.01066 2.65173 8.54643 2.65173 8.08221C2.65173 7.9977 2.65173 7.91319 2.65173 7.82868C2.65173 7.77988 2.65173 7.92628 2.65173 7.97509C2.65173 8.00821 2.69363 9.06902 2.62316 8.36432C2.62278 8.36047 2.58135 7.88526 2.5446 7.8144C2.47126 7.67295 2.52988 8.14316 2.45533 8.28397C2.39788 8.39249 2.39349 8.04539 2.38034 7.92331C2.35657 7.70264 2.33775 7.44199 2.31963 7.21805C2.31746 7.19121 2.30999 6.87425 2.28214 7.08593C2.26758 7.19655 2.25464 7.30648 2.23393 7.41624C2.17558 7.72552 2.17417 7.14608 2.1768 7.0895C2.18806 6.84728 2.46507 6.82758 2.6553 6.7824C2.99276 6.70225 3.33146 6.69852 3.67658 6.6967C4.49427 6.6924 5.3121 6.6967 6.1298 6.6967C6.94159 6.6967 7.75338 6.6967 8.56517 6.6967C8.91512 6.6967 9.26507 6.6967 9.61502 6.6967C9.6781 6.6967 9.86735 6.69585 9.80427 6.6967C9.04884 6.70691 8.29383 6.71816 7.53853 6.73955C5.8805 6.7865 4.22511 6.88055 2.56781 6.94309C2.40042 6.94941 1.92124 6.99864 2.0661 6.91452C2.19281 6.84095 2.26186 6.73708 2.3232 6.60564C2.35346 6.5408 2.46778 6.35233 2.31606 6.43245C2.22132 6.48248 1.98139 6.57324 2.05181 6.72884C2.14958 6.94484 2.44556 7.21126 2.59816 7.32875C3.08801 7.70587 3.55564 7.95297 4.1158 8.21791C4.13748 8.22816 5.27732 8.70249 5.4049 8.78569C5.63639 8.93663 5.71417 9.10123 5.67272 9.37132C5.6488 9.5272 5.40758 10.0683 5.34777 10.1926C5.29421 10.304 5.24231 10.4172 5.1728 10.5194C5.00992 10.7586 5.0261 10.5183 5.01568 10.3426C4.11521 -4.83664 6.0434 26.622 4.99425 9.11778C4.98472 8.95875 5.00372 8.78916 4.94069 8.64285C4.92183 8.59909 4.82525 8.62588 4.79963 8.66606C4.61658 8.95324 4.27989 10.091 4.2265 10.2623C4.1257 10.5856 4.03616 10.9125 3.93369 11.2353C3.88614 11.3851 3.87853 11.5603 3.77657 11.6799C3.72715 11.7379 3.7503 11.5293 3.748 11.4532C3.74136 11.2336 3.76492 11.0134 3.74979 10.7943C3.70498 10.1456 3.73242 10.426 3.50518 10.0141C3.33137 9.69905 3.3672 9.7211 3.35698 9.3124C3.35025 9.04293 3.39769 8.85369 3.29985 9.28026C3.2594 9.45662 3.229 9.63533 3.18379 9.81054C3.16165 9.89637 3.1867 10.0595 3.09809 10.0623C3.01486 10.0649 3.07254 9.89733 3.06953 9.81411C3.063 9.6339 3.06953 9.45345 3.06953 9.27312C3.06953 9.08386 3.06953 8.51608 3.06953 8.70534C3.06953 9.03439 3.06766 9.27763 3.08024 9.62664C3.0871 9.81702 3.0037 10.7051 3.37841 10.7229C3.61011 10.7339 3.79937 10.7464 4.02296 10.8211C4.25221 10.8977 4.45828 10.8748 4.70559 10.8748C5.04417 10.8748 5.39515 10.7569 5.72223 10.681C5.94625 10.6291 6.09729 10.5481 6.28421 10.4187" stroke="#66AE7B" stroke-linecap="round"/>
<path d="M1.59375 16.6801C1.9414 16.5807 1.83301 16.6164 2.32004 16.438C2.59146 16.3385 2.86179 16.2361 3.13207 16.1337C3.1673 16.1203 4.17296 15.7518 4.36273 15.6327C4.38508 15.6186 4.39309 15.5611 4.36778 15.5536C4.26934 15.5247 4.16272 15.5426 4.06011 15.5435C3.70146 15.547 3.35095 15.5858 3.00262 15.6713C2.96888 15.6796 2.93379 15.6864 2.90343 15.7033C2.88286 15.7147 2.94949 15.6936 2.97236 15.6881C3.0683 15.6651 3.16378 15.6401 3.25985 15.6175C3.32785 15.6016 4.02436 15.4534 4.12064 15.3973C4.30547 15.2895 3.69911 15.3052 3.48513 15.3065C3.28639 15.3077 2.29981 15.3191 3.27834 15.3788C3.4421 15.3888 3.60705 15.3895 3.76926 15.4141C3.85285 15.4267 3.96291 15.4205 4.01136 15.4897C4.04257 15.5344 3.95973 15.5915 3.91384 15.6209C3.697 15.7596 3.28465 15.8681 3.05642 15.9285C2.91856 15.965 2.77952 15.9975 2.63947 16.0244C2.58641 16.0346 2.52441 16.0673 2.47808 16.0395C2.44684 16.0208 2.53906 15.9991 2.57222 15.984C2.58444 15.9785 3.05876 15.7877 3.07659 15.7789C3.23002 15.7034 3.16232 15.7042 3.03288 15.6881C2.75165 15.6533 2.35543 15.657 3.14384 15.5318C3.87926 15.415 5.08479 15.2824 5.77665 15.2023C6.17335 15.1563 6.5703 15.1125 6.96696 15.0661C7.03993 15.0575 7.2586 15.0299 7.18551 15.0375C6.96114 15.0608 6.73703 15.0866 6.51302 15.1132C5.88489 15.1877 5.25935 15.2846 4.63005 15.3485C4.5598 15.3557 4.3705 15.4006 4.41821 15.3485C4.49586 15.2638 4.63248 15.2652 4.74101 15.2275C4.93851 15.1588 5.13834 15.0969 5.33616 15.0291C5.54479 14.9576 6.17519 14.7644 5.95822 14.8038C5.76998 14.838 5.26367 15.1156 5.09743 14.9383C5.04619 14.8837 5.09788 14.7827 5.13274 14.7164C5.20372 14.5814 5.30394 14.4625 5.40678 14.3499C5.52734 14.2178 5.65637 14.0914 5.80018 13.985C5.96648 13.8621 6.39497 13.5816 6.38861 13.7883C6.38571 13.8826 6.26683 13.9367 6.18687 13.9867C6.0052 14.1004 5.80401 14.1793 5.61189 14.2742C5.43638 14.3609 5.25006 14.4279 5.08398 14.5314C5.04162 14.5579 4.78769 14.759 5.04363 14.7735C5.19962 14.7824 5.21761 14.5842 5.24538 14.4945C5.27376 14.4028 5.30435 14.3113 5.32271 14.2171C5.36676 13.9911 5.27991 14.1592 5.09911 14.0893C4.63351 13.9092 4.52378 13.6817 4.37954 13.1528C4.29514 12.8434 4.26316 12.5187 4.26018 12.1979C4.25757 11.9172 4.34291 11.194 4.53254 11.401C4.69222 11.5753 4.50281 12.1389 4.44511 12.2517C4.38268 12.3737 4.29311 12.4913 4.17612 12.5627C3.98445 12.6797 3.8107 12.5409 3.8735 12.3307C3.94631 12.087 4.21914 11.9189 4.46529 11.9272C4.95281 11.9436 4.92348 12.5464 4.63341 12.7796C4.5774 12.8246 4.44336 12.8335 4.41821 12.7662C4.3578 12.6044 4.3915 12.4155 4.43503 12.2483C4.51531 11.9401 4.63915 11.6423 4.78472 11.359C4.93312 11.0701 5.12222 10.8033 5.31263 10.5402C5.40217 10.4165 5.5548 10.3394 5.62197 10.2023C5.66403 10.1164 5.47852 10.3321 5.39333 10.3755C5.13994 10.5045 4.88894 10.6542 4.61155 10.7167C4.32212 10.782 4.00469 10.8427 3.72218 10.752C3.13338 10.5631 3.16145 9.97742 3.40611 9.54829C3.61896 9.17496 4.1416 8.78294 4.6166 8.87243C5.22794 8.98761 4.84242 9.65909 4.49891 9.76012C4.44888 9.77484 4.3602 9.73829 4.36105 9.68615C4.36255 9.59438 4.44968 9.52479 4.50396 9.45078C4.54876 9.38967 4.64623 9.35766 4.65695 9.28265C4.66341 9.23744 4.57994 9.23248 4.53758 9.2154C4.43485 9.17399 4.31318 9.17238 4.22319 9.10781C4.03027 8.96938 3.92843 8.74776 4.06852 8.52274C4.11196 8.45295 4.20847 8.39414 4.28876 8.41178C4.55323 8.46988 4.59682 8.8789 4.55944 9.05737C4.48698 9.40323 4.2516 9.63926 3.8735 9.60377C3.21978 9.54241 3.04447 8.8067 3.38258 8.32772C3.56395 8.07077 3.9838 7.82674 4.3207 7.90405C4.76826 8.00675 4.49474 8.54003 4.19293 8.58494C3.94875 8.62128 3.78873 8.44131 3.78271 8.21003C3.77172 7.78804 4.23585 7.50041 4.61996 7.6485C4.88784 7.75178 5.02134 8.02708 4.98647 8.30082C4.95597 8.54019 4.66168 9.05973 4.38123 9.10781C4.20728 9.13763 4.64803 8.86373 4.8133 8.80182C5.03199 8.7199 5.25781 8.63887 5.49084 8.62361C5.81478 8.6024 6.53615 8.6338 6.63071 9.13471C6.72342 9.62581 6.11429 9.97165 5.75311 10.0056C5.54631 10.025 5.30426 9.9647 5.15963 9.8156C4.71667 9.35894 5.48408 9.02565 5.72285 8.97667C6.29233 8.85985 7.00954 9.00491 7.4377 9.42724C7.58054 9.56814 7.67541 9.78515 7.66298 9.98541C7.6425 10.3156 7.18722 10.4823 6.99722 10.167C6.74533 9.74892 6.95243 9.10389 7.20905 8.7682C7.34604 8.589 7.54545 8.43258 7.76554 8.3832C8.23715 8.27739 8.46322 8.71278 8.34388 9.10444C8.16168 9.70239 7.56522 10.0197 7.00058 10.1283C6.71298 10.1836 6.39635 10.1914 6.12298 10.0863C5.60943 9.88887 5.63957 9.40705 5.94477 9.06073C6.22497 8.74279 6.87203 8.46995 7.30656 8.51601C8.12013 8.60226 7.47252 9.42854 7.20905 9.62731C6.95846 9.81636 6.55263 10.037 6.23058 9.8072C5.75507 9.46789 6.08689 8.64792 6.41887 8.35798C6.66155 8.14603 7.03536 8.08736 7.27294 8.35798C7.65181 8.78953 7.35934 9.49188 6.79715 9.54997C6.39955 9.59105 6.02843 9.35818 5.99184 8.9296C5.92423 8.13751 6.88805 7.62744 7.51167 7.47029C7.57106 7.45532 8.28451 7.31385 8.1808 7.73256C8.13599 7.91349 7.99653 8.06318 7.86137 8.19154C7.4905 8.54373 7.042 8.78368 6.51639 8.78501C6.09965 8.78607 5.74504 8.63043 5.65055 8.19322C5.53884 7.67629 6.0414 7.22244 6.50294 7.14077C6.73388 7.0999 7.03954 7.18894 7.1418 7.42994C7.37168 7.9717 6.87842 8.52193 6.49957 8.81527C6.39941 8.89283 5.88066 9.26674 5.6371 9.15488C5.55652 9.11787 5.5172 8.99638 5.53455 8.90942C5.61353 8.51362 6.07546 8.02844 6.37516 7.84352C6.88788 7.52717 7.69748 7.31062 8.30185 7.44339C9.46417 7.69874 9.7683 8.82484 9.61153 9.85595C9.52458 10.4278 9.2907 11.1405 8.73393 11.4548C8.0526 11.8394 7.62857 10.9554 7.55202 10.4528C7.49837 10.1005 7.5666 9.63718 7.81766 9.35663C8.09973 9.04141 8.71181 8.90155 9.06681 9.17169C9.3936 9.42038 9.47928 9.8366 9.54596 10.2107C9.66032 10.8523 9.70924 11.7006 9.36775 12.2954C9.27305 12.4604 9.00424 12.691 8.77596 12.5779C8.24999 12.3172 8.26191 11.298 8.27999 10.8613C8.30449 10.2699 8.38954 9.78275 8.66163 9.25575C8.80289 8.98216 9.34612 8.23003 9.78469 8.62361C10.0574 8.86833 10.1047 9.52225 10.0873 9.8072C10.0414 10.56 9.75328 11.6419 9.01133 12.0247C8.55333 12.2611 8.29049 12.0245 8.15222 11.5809C7.88668 10.729 8.19175 9.56304 8.71543 8.86571C8.94429 8.56096 9.37673 8.23959 9.79478 8.44204C10.4282 8.74877 10.6072 9.77949 10.5513 10.3788C10.4971 10.9601 10.3144 11.3791 9.91919 11.8062C9.52922 12.2276 8.90284 12.4867 8.60783 11.7944C8.42976 11.3765 8.44266 10.7044 8.53386 10.2813C8.62628 9.85249 8.93696 8.96938 9.46022 8.83545C9.7631 8.75792 9.84576 9.1128 9.89397 9.30955C10.1178 10.2229 10.033 11.3021 9.77461 12.1979C9.69818 12.4628 9.43019 13.0163 9.23325 12.8233C9.12245 12.7148 9.11252 12.5364 9.07353 12.3862C9.03079 12.2216 8.94655 11.6942 8.96089 11.4851C8.97757 11.2418 9.04236 11.2952 9.17441 11.1202C9.25502 11.0134 9.41755 10.6352 9.07522 10.7588C8.11604 11.1049 9.41015 10.7291 8.74569 11.0244C8.7252 11.0335 8.74096 10.9786 8.74738 10.9572C8.77808 10.8544 8.86449 10.6504 8.91886 10.5503C8.96532 10.4648 8.85022 10.7326 8.80958 10.821C8.79343 10.8561 8.4703 11.619 8.67845 10.9504C8.6902 10.9127 9.03658 9.85227 9.04832 9.82401C9.07551 9.75854 9.12762 9.59187 9.16936 9.64916C9.25049 9.76051 9.21263 9.9218 9.2198 10.0594C9.23564 10.3633 9.23122 10.668 9.23829 10.9723C9.24019 11.0537 9.24111 12.2516 9.33244 12.5039C9.48568 12.9271 9.83022 11.7427 9.97635 11.3169C10.1246 10.885 10.2181 10.4352 10.3731 10.0056C10.3932 9.94987 10.4242 9.81713 10.469 9.85595C10.5483 9.92483 10.533 10.0568 10.5513 10.1603C10.592 10.3897 10.6143 10.622 10.6455 10.8529C10.6625 10.9785 10.7686 11.8581 10.8338 12.0802C10.8445 12.1168 10.891 12.1966 10.9111 12.1643C10.9761 12.0601 10.9785 11.928 11.0036 11.8079C11.0492 11.5893 11.082 11.3683 11.123 11.1488C11.1649 10.9239 11.1971 10.6967 11.2524 10.4746C11.2769 10.3762 11.2677 10.1522 11.3617 10.1905C11.4729 10.2359 11.4156 10.4255 11.4256 10.5453C11.4557 10.9063 11.4543 11.5336 11.4575 11.9087C11.4604 12.2508 11.4592 12.0024 11.4592 11.7154C11.4592 11.1836 11.4592 10.6517 11.4592 10.1199C11.4592 10.0538 11.4565 9.85545 11.4592 9.92152C11.4733 10.2694 11.4958 10.6153 11.5281 10.9622C11.5759 11.475 11.7211 13.0087 11.7316 12.4938C11.7477 11.6997 11.6548 10.9021 11.5651 10.1149C11.5342 9.8438 11.4669 9.02805 11.4945 9.29947C11.5797 10.1372 11.6468 10.9706 11.6895 11.8112C11.7092 12.1986 11.7105 12.6094 11.7854 12.9914C11.8582 13.3629 11.7717 12.2341 11.7433 11.8566C11.6611 10.7614 11.5477 9.67547 11.3281 8.59839C11.312 8.51988 11.1939 7.98713 11.2743 8.38488C11.395 8.98268 11.5565 9.57192 11.6828 10.1687C11.8135 10.786 11.9356 11.407 12.0375 12.0298C12.1655 12.8116 11.6631 10.4901 11.4928 9.71641C11.4905 9.70573 11.2957 8.80219 11.2574 8.6337C11.2472 8.58864 11.2374 8.45503 11.2238 8.4992C11.2062 8.55634 11.2363 8.61813 11.244 8.67741C11.2677 8.85912 11.2922 9.04072 11.318 9.22213C11.5054 10.5396 12.1462 14.4795 11.977 13.1596C11.7738 11.5749 11.4448 9.99962 11.1734 8.42523C11.1541 8.31316 11.112 8.11479 11.1633 8.29745C11.3317 8.89782 11.5041 9.49581 11.6895 10.0913C11.7154 10.1743 11.9367 10.9035 12.0275 11.0967C12.1577 11.3742 12.0572 10.4828 12.0342 10.1771C12.0034 9.7685 11.9207 8.82046 11.8829 8.40169C11.8684 8.24191 11.8548 8.08204 11.8375 7.92254C11.8346 7.89588 11.8247 7.81681 11.8223 7.84352C11.815 7.92557 11.8223 8.00828 11.8223 8.09066C11.8223 8.39328 11.8223 8.69591 11.8223 8.99853C11.8223 9.14816 11.824 9.29779 11.8223 9.44741C11.8191 9.73843 11.8078 9.57542 11.7954 9.34654C11.7706 8.88744 11.745 8.18955 11.7349 7.74937C11.7288 7.48379 11.7255 7.21813 11.7248 6.95247C11.7243 6.74441 11.7076 6.12472 11.7484 6.32874C11.8083 6.62854 11.7811 6.9394 11.7904 7.24501C11.8062 7.76717 11.8182 8.28951 11.8223 8.81191C11.824 9.01405 11.8399 8.91539 11.7938 8.84722C11.7312 8.75491 11.701 8.7428 11.5702 8.69254C11.0934 8.5094 10.5739 8.43033 10.0739 8.34117C9.90371 8.31083 9.71294 8.33931 9.56277 8.25374C9.547 8.24476 9.56151 8.2153 9.57118 8.19994C9.62749 8.1105 9.81791 7.92997 9.87212 7.87715C9.95423 7.79714 10.1364 7.64736 10.1932 7.52913C10.3009 7.30504 10.2277 7.05658 10.3664 6.83142C10.4594 6.6804 10.8734 6.38754 10.8825 6.73055C10.8904 7.02621 10.8931 7.31962 10.9145 7.61488C10.9327 7.86694 11.0223 8.26501 10.9229 8.50593C10.7781 8.85668 9.88383 8.55269 9.67373 8.45885C9.0926 8.19929 8.84347 7.45886 9.23998 6.92389C9.60108 6.43668 10.369 6.51742 10.4807 7.16767C10.525 7.4254 10.4277 7.64673 10.2252 7.8099C9.95794 8.02523 9.41245 8.22934 9.06177 8.13774C8.66527 8.03418 9.07344 7.27972 9.44845 7.40472C9.58364 7.44978 9.73689 7.42788 9.87212 7.47365C9.96019 7.50346 10.0034 7.55097 10.0402 7.63841C10.1981 8.01317 10.249 8.46891 10.3042 8.86403C10.4831 10.1439 10.6275 11.4054 10.9145 12.6686C11.0103 13.0903 11.114 13.4984 11.165 13.9262C11.1825 14.0735 11.2034 14.1679 11.2322 14.3179C11.2341 14.3277 11.2659 14.7993 11.3953 14.5785C11.4683 14.454 11.6243 14.032 11.6609 13.9296C11.6772 13.884 11.844 13.167 11.9434 13.1461C12.0407 13.1256 12.4267 15.3062 12.4696 15.6259C12.5036 15.8787 12.5213 16.0875 12.3402 16.2816C12.225 16.405 12.0916 16.3945 11.9266 16.401C11.5364 16.4163 11.1487 16.4125 10.7615 16.4699C9.95868 16.5888 9.07776 16.7273 8.27159 16.5607C7.91864 16.4877 7.76607 16.2979 7.75713 15.9403C7.74908 15.6182 8.16902 15.7117 8.38255 15.7117C9.20129 15.7117 10.0147 15.7208 10.8304 15.6377C11.0566 15.6147 11.4323 15.6184 11.6391 15.515C11.7431 15.463 11.8305 15.4875 11.8644 15.6041C11.9232 15.8066 11.0234 15.6831 10.9683 15.678C10.6464 15.6486 9.83284 15.6445 9.92592 15.1199C9.99611 14.7242 10.5591 14.2868 10.8977 14.6962C11.407 15.3122 10.3158 15.5537 9.92087 15.2208C9.34168 14.7325 10.3163 13.5067 10.7934 14.0136C10.9578 14.1883 10.927 14.5299 10.7833 14.6996C10.499 15.0352 9.82287 15.0969 9.50561 14.7735C9.27539 14.5389 9.38336 14.2661 9.5695 14.059C9.69029 13.9246 10.3477 13.5891 10.3395 14.0742C10.3307 14.5953 9.51653 14.018 9.46022 13.975C9.32542 13.8719 9.20392 13.7515 9.08867 13.6269C8.30241 12.7772 9.21845 13.7327 8.79613 13.1697" stroke="#66AE7B" stroke-linecap="round"/>
<path d="M9.94922 13.4423C9.95812 13.5105 9.9654 13.9987 10.1086 13.667C10.1735 13.5168 10.3144 13.0494 10.3595 12.917C10.3928 12.8194 10.416 12.7167 10.4667 12.6269C10.4808 12.6018 10.4797 12.6848 10.4745 12.7132C10.4199 13.0096 10.2211 13.7422 10.1635 13.9728C10.1107 14.1839 9.94014 14.7832 10.0851 14.6209C10.3911 14.2784 10.5634 13.8367 10.7986 13.4423C10.9249 13.2304 11.0391 13.0104 11.1827 12.8099C11.2469 12.7202 11.3078 12.5723 11.4179 12.5773C11.6503 12.5877 11.6572 14.5194 11.6583 14.5399C11.6886 15.0848 11.6939 15.631 11.7263 16.1758C11.7351 16.3242 11.7302 16.5615 11.8308 16.3013C11.9091 16.0986 12.129 15.6192 11.7629 15.7211C11.4211 15.8162 11.481 14.9692 11.4545 14.8064" stroke="#66AE7B" stroke-linecap="round"/>
</svg>
